<?xml version="1.0" encoding="UTF-8"?>
<svg xmlns="http://www.w3.org/2000/svg" version="1.1" viewBox="0 0 493.7 118.1">
  <!-- Generator: Adobe Illustrator 29.1.0, SVG Export Plug-In . SVG Version: 2.1.0 Build 142)  -->
  <defs>
    <style>
      .st0 {
        font-family: Lato-Bold, Lato;
        font-size: 66px;
        font-weight: 700;
        letter-spacing: 0em;
        stroke: #231f20;
        stroke-width: .5px;
      }

      .st0, .st1 {
        stroke-miterlimit: 10;
      }

      .st0, .st2 {
        fill: #231f20;
      }

      .st1 {
        fill: none;
        stroke: #ed1c24;
        stroke-linecap: round;
        stroke-width: 12px;
      }

      .st3 {
        fill: #ed1c24;
      }

      .st4 {
        fill: #fff;
      }

      .st5 {
        display: none;
      }
    </style>
  </defs>
  <g id="Layer_2" class="st5">
    <text class="st0" transform="translate(85.9 77.6)"><tspan x="0" y="0">getheard.io</tspan></text>
    <g>
      <polyline class="st1" points="57.9 81.6 36.8 60.6 57.9 39.6"/>
      <polyline class="st1" points="435.9 39.6 456.9 60.6 435.9 81.6"/>
    </g>
  </g>
  <g id="Black" class="st5">
    <g>
      <path class="st2" d="M106.4,43.4c-1.3-.3-2.7-.5-4.1-.5s-3.8.3-5.4.8c-1.7.5-3.1,1.3-4.3,2.2-1.2,1-2.2,2.2-2.9,3.5-.7,1.4-1,2.9-1,4.6s.5,4,1.5,5.5c.9,1.4,2.2,2.6,3.7,3.6-.6.3-1.1.7-1.6,1.1-.6.5-1,1-1.4,1.5-.4.5-.7,1.1-.9,1.7-.2.6-.3,1.1-.3,1.6,0,1.3.3,2.4.8,3.2.5.7,1.1,1.2,1.8,1.7-1.5.6-2.7,1.4-3.6,2.4-1,1.1-1.5,2.5-1.5,4.1s.3,2.4,1,3.5c.6,1.1,1.6,2.1,2.9,2.9,1.3.8,2.9,1.5,4.8,2,1.9.5,4.2.8,6.7.8s5-.3,7-1c2.1-.7,3.8-1.6,5.2-2.7,1.4-1.1,2.5-2.4,3.3-3.8.8-1.4,1.1-2.9,1.1-4.5s-.3-3-1-4.1c-.6-1.1-1.5-1.9-2.6-2.5-1.1-.6-2.3-1.1-3.6-1.3-1.3-.3-2.7-.5-4.1-.6-1.4-.1-2.8-.2-4.1-.2-1.3,0-2.5-.1-3.5-.2-1-.1-1.8-.3-2.4-.7-.5-.3-.8-.7-.8-1.3s.5-1.3,1.4-1.9c.6.1,1.1.2,1.7.2.6,0,1.3,0,1.9,0,1.9,0,3.7-.3,5.3-.8,1.6-.5,3.1-1.3,4.3-2.2,1.2-1,2.2-2.2,2.9-3.5.7-1.4,1-2.9,1-4.6s-.2-2.5-.6-3.6l2.7-.5c1.6-.3,2-1.3,2-2v-3.3h-9.9c-1.1-.6-2.2-1-3.5-1.3ZM102.8,83.5c-1.5,0-2.7-.1-3.7-.3-1-.2-1.8-.5-2.4-.8-.6-.3-1.1-.8-1.3-1.2-.3-.5-.4-1-.4-1.5,0-.8.3-1.6.8-2.2.5-.6,1.2-1.2,2.1-1.7,1,.1,2.1.2,3.1.3,1.1,0,2.1,0,3.2.1,1,0,2,.1,2.9.2.9.1,1.7.3,2.3.5.6.2,1.2.5,1.5.9.4.4.5.8.5,1.4s-.2,1.2-.5,1.7c-.3.5-.8,1-1.5,1.4-.7.4-1.6.7-2.6.9-1.1.2-2.4.3-3.9.3ZM104.8,59.2c-.7.3-1.6.4-2.6.4s-1.8-.1-2.5-.4c-.7-.3-1.3-.6-1.8-1.1-.5-.5-.8-1-1.1-1.7-.2-.7-.4-1.4-.4-2.1,0-1.6.5-2.9,1.4-3.8.9-.9,2.4-1.4,4.3-1.4s3.4.5,4.3,1.4c.9.9,1.4,2.2,1.4,3.8s-.1,1.5-.4,2.2c-.2.6-.6,1.2-1.1,1.7-.5.5-1.1.8-1.8,1.1Z"/>
      <path class="st2" d="M152.5,61.2c.3-.5.4-1.3.4-2.6,0-2.5-.4-4.7-1.1-6.6-.7-1.9-1.8-3.6-3.1-4.9-1.3-1.3-2.9-2.4-4.7-3-1.8-.7-3.8-1-6-1s-4.9.5-6.9,1.3c-2,.9-3.8,2.1-5.2,3.6-1.4,1.5-2.5,3.3-3.3,5.4-.8,2.1-1.1,4.3-1.1,6.6s.4,5.7,1.3,7.9c.9,2.3,2.1,4.2,3.6,5.8,1.5,1.5,3.3,2.7,5.4,3.5,2,.8,4.3,1.2,6.7,1.2s2.4,0,3.7-.3c1.3-.2,2.5-.5,3.8-.9,1.2-.4,2.4-1,3.6-1.7,1.1-.7,2.2-1.6,3.1-2.7v-.2c.1,0-2.3-3.1-2.3-3.1-.4-.6-1-.9-1.7-.9s-1.1.2-1.7.5c-.5.3-1.2.6-1.9,1-.7.4-1.5.7-2.5,1-.9.3-2,.5-3.3.5s-2.5-.2-3.5-.6c-1-.4-2-1-2.7-1.8-.8-.8-1.4-1.8-1.9-3.1-.4-1.2-.7-2.6-.9-4.2h20.7c.8,0,1.4-.3,1.7-.8ZM130.2,56.6c.4-2.3,1.2-4,2.5-5.3,1.3-1.3,3.1-1.9,5.4-1.9s2.2.2,3.1.6c.9.4,1.6.9,2.2,1.6.6.7,1,1.5,1.3,2.4.3.8.4,1.7.4,2.7h-14.8Z"/>
      <path class="st2" d="M175.1,70.5c-.4-.3-.9-.3-1.5,0-.2.1-.4.2-.7.4-.2.1-.5.3-.9.4-.3.1-.7.2-1.2.2-.8,0-1.5-.3-1.9-.8-.5-.5-.7-1.3-.7-2.3v-18.1h9v-6.3h-9v-10.7h-4.5c-.5,0-1,.1-1.3.4-.4.3-.6.7-.7,1.2l-1.7,9.1-5.5.9v3.4c0,.6.2,1.1.5,1.5.4.3.8.5,1.3.5h3.2v18.7c0,3,.8,5.4,2.4,7.1,1.6,1.7,4,2.6,7,2.6s3.3-.3,4.9-.8c1.6-.5,3-1.3,4.2-2.3h.2c0-.1-2.6-4.3-2.6-4.3-.2-.3-.4-.5-.5-.6Z"/>
      <path class="st2" d="M208.4,46.7c-1-1.2-2.2-2.1-3.7-2.7-1.5-.6-3.1-1-5-1s-4.1.4-5.7,1.2c-1.4.7-2.8,1.6-4,2.7v-18.5h-8.7v49.5h8.7v-24.6c1.1-1,2.2-1.9,3.4-2.5,1.2-.6,2.5-.9,3.8-.9s3.2.5,4.1,1.6c.9,1.1,1.4,2.6,1.4,4.6v21.8h8.7v-21.8c0-1.9-.3-3.7-.8-5.3-.5-1.6-1.3-3-2.2-4.1Z"/>
      <path class="st2" d="M247.2,61.2c.3-.5.4-1.3.4-2.6,0-2.5-.4-4.7-1.1-6.6-.7-1.9-1.8-3.6-3.1-4.9-1.3-1.3-2.9-2.4-4.7-3-1.8-.7-3.8-1-6-1s-4.9.5-6.9,1.3c-2,.9-3.8,2.1-5.2,3.6-1.4,1.5-2.5,3.3-3.3,5.4-.8,2.1-1.1,4.3-1.1,6.6s.4,5.7,1.3,7.9c.9,2.3,2.1,4.2,3.6,5.8,1.5,1.5,3.3,2.7,5.4,3.5,2,.8,4.3,1.2,6.7,1.2s2.4,0,3.7-.3c1.3-.2,2.5-.5,3.8-.9,1.2-.4,2.4-1,3.6-1.7,1.1-.7,2.2-1.6,3.1-2.7v-.2c.1,0-2.3-3.1-2.3-3.1-.4-.6-1-.9-1.7-.9s-1.1.2-1.7.5c-.5.3-1.2.6-1.9,1-.7.4-1.5.7-2.5,1-.9.3-2,.5-3.3.5s-2.5-.2-3.5-.6c-1-.4-2-1-2.7-1.8-.8-.8-1.4-1.8-1.9-3.1-.4-1.2-.7-2.6-.9-4.2h20.7c.8,0,1.4-.3,1.7-.8ZM224.9,56.6c.4-2.3,1.2-4,2.5-5.3,1.3-1.3,3.1-1.9,5.4-1.9s2.2.2,3.1.6c.9.4,1.6.9,2.2,1.6.6.7,1,1.5,1.3,2.4.3.8.4,1.7.4,2.7h-14.8Z"/>
      <path class="st2" d="M275.5,46.7c-1.1-1.2-2.5-2.1-4-2.8-1.6-.7-3.4-1-5.4-1-5.5,0-10.3,1.8-14.2,5.4h-.1c0,.1,1.6,2.9,1.6,2.9.3.4.6.8,1,1.1.4.3,1,.5,1.6.5s1.3-.2,1.9-.5,1.1-.7,1.8-1c.6-.4,1.4-.7,2.3-1,.8-.3,1.9-.4,3.2-.4s3.1.5,4,1.5c.9,1,1.4,2.7,1.4,4.9v1.7c-2.5,0-4.7.3-6.7.6-2,.3-3.8.7-5.3,1.2-1.5.5-2.8,1.1-3.9,1.8-1,.7-1.9,1.4-2.6,2.2-.7.8-1.2,1.6-1.4,2.5-.3.9-.4,1.8-.4,2.6,0,1.5.3,2.9.7,4.1.5,1.2,1.2,2.2,2.1,3,.9.8,2,1.4,3.2,1.8,1.2.4,2.6.6,4,.6s2.4-.1,3.4-.3c1-.2,2-.5,2.9-.9.9-.4,1.8-.9,2.6-1.5.7-.5,1.5-1.1,2.2-1.8l.6,2.1c.3.8.6,1.3,1.1,1.5.5.3,1.1.4,1.9.4h3.9v-21.6c0-1.9-.3-3.7-.9-5.4-.6-1.6-1.4-3.1-2.5-4.2ZM270.4,63.4v5.3c-1.1,1.2-2.3,2.1-3.4,2.6-1.2.6-2.6.9-4.2.9s-2.4-.3-3.2-.9c-.8-.6-1.2-1.5-1.2-2.9s.2-1.3.6-1.9c.4-.6,1.1-1.1,2-1.5.9-.4,2.2-.8,3.8-1.1,1.5-.3,3.4-.5,5.6-.6Z"/>
      <path class="st2" d="M302.2,42.9c-2,0-3.8.6-5.3,1.8-1.3,1-2.5,2.4-3.5,4.2l-.4-3.1c-.1-.8-.4-1.4-.7-1.8-.4-.3-1-.5-1.9-.5h-5v34.4h8.7v-21.1c.4-.9.8-1.7,1.2-2.3.4-.7.9-1.3,1.4-1.7.5-.5,1.1-.8,1.8-1.1,1.1-.4,2.6-.5,4.2-.2.7.1,1.2.2,1.5.2s.7-.1,1-.3c.2-.2.4-.5.6-1l.5-6.2h-.1c-1-.8-2.3-1.2-3.9-1.2Z"/>
      <path class="st2" d="M329.7,45.9c-1-.8-2.1-1.5-3.2-2.1-1.4-.6-3-.9-5-.9s-4.3.5-6.1,1.4c-1.8.9-3.4,2.2-4.7,3.8-1.3,1.6-2.3,3.5-3,5.7-.7,2.2-1,4.6-1,7.1s.3,5.3.9,7.5c.6,2.2,1.5,4,2.6,5.5,1.1,1.5,2.5,2.6,4.1,3.4,1.6.8,3.3,1.2,5.2,1.2s4.5-.5,6.3-1.5c1.6-.9,3.1-2.1,4.4-3.5l.6,2.8c.3,1.1,1.1,1.7,2.3,1.7h5.2V28.3h-8.7v17.5ZM317.7,52.3c.7-.9,1.5-1.6,2.4-2,1-.4,2-.7,3.2-.7s2.4.2,3.4.7c1,.4,2,1.2,2.9,2.2v15c-1,1.2-2.1,2.2-3.2,2.9-1.1.7-2.6,1-4.2,1s-1.9-.2-2.8-.6c-.8-.4-1.5-1-2.1-1.8-.6-.8-1-1.9-1.3-3.3-.3-1.3-.5-3-.5-5s.2-3.6.6-5c.4-1.4.9-2.6,1.6-3.5Z"/>
      <path class="st2" d="M353,69.4c-.5-.5-1-.8-1.7-1.1-1.3-.6-2.9-.6-4.1,0-.6.3-1.2.6-1.7,1.1-.5.5-.8,1-1.1,1.7-.3.6-.4,1.3-.4,2s.1,1.4.4,2.1c.3.6.6,1.2,1.1,1.6.5.5,1,.8,1.7,1.1.6.3,1.3.4,2.1.4s1.4-.1,2.1-.4c.6-.3,1.2-.6,1.7-1.1.5-.5.9-1,1.1-1.6.3-.6.4-1.3.4-2.1s-.1-1.4-.4-2c-.3-.6-.7-1.2-1.1-1.7Z"/>
      <rect class="st2" x="360.5" y="43.5" width="8.7" height="34.4"/>
      <path class="st2" d="M368.7,30c-.5-.5-1.1-.9-1.7-1.2-1.3-.6-2.9-.6-4.2,0-.7.3-1.2.7-1.7,1.2-.5.5-.9,1.1-1.2,1.7s-.4,1.4-.4,2.1.1,1.4.4,2.1c.3.6.7,1.2,1.2,1.7.5.5,1.1.9,1.7,1.2.7.3,1.4.4,2.1.4s1.5-.1,2.1-.4c.7-.3,1.2-.7,1.7-1.2.5-.5.9-1.1,1.2-1.7.3-.6.5-1.3.5-2.1s-.2-1.5-.5-2.1c-.3-.7-.7-1.2-1.2-1.7Z"/>
      <path class="st2" d="M407.3,53.3c-.8-2.2-2-4.1-3.4-5.6-1.5-1.5-3.3-2.7-5.4-3.5-2.1-.8-4.4-1.2-6.9-1.2s-4.9.4-7,1.2c-2.1.8-3.9,2-5.4,3.5-1.5,1.5-2.6,3.4-3.5,5.6-.8,2.2-1.2,4.6-1.2,7.3s.4,5.2,1.2,7.3c.8,2.2,2,4.1,3.5,5.6,1.5,1.5,3.3,2.7,5.4,3.6,2.1.8,4.4,1.2,7,1.2s4.9-.4,6.9-1.2c2.1-.8,3.9-2,5.4-3.6,1.5-1.5,2.6-3.4,3.4-5.6.8-2.2,1.2-4.6,1.2-7.3s-.4-5.1-1.2-7.3ZM391.6,71.6c-2.8,0-4.8-.9-6.1-2.8-1.3-1.9-2-4.6-2-8.2s.7-6.3,2-8.2c1.3-1.8,3.4-2.8,6.1-2.8s4.8.9,6,2.8c1.3,1.9,2,4.6,2,8.2s-.7,6.3-2,8.2c-1.3,1.8-3.3,2.7-6.1,2.7Z"/>
    </g>
    <g>
      <path class="st3" d="M57.9,87.6c-1.5,0-3.1-.6-4.2-1.8l-25.3-25.3,25.3-25.3c2.3-2.3,6.1-2.3,8.5,0,2.3,2.3,2.3,6.1,0,8.5l-16.8,16.8,16.8,16.8c2.3,2.3,2.3,6.1,0,8.5-1.2,1.2-2.7,1.8-4.2,1.8Z"/>
      <path class="st3" d="M435.9,87.6c-1.5,0-3.1-.6-4.2-1.8-2.3-2.3-2.3-6.1,0-8.5l16.8-16.8-16.8-16.8c-2.3-2.3-2.3-6.1,0-8.5,2.3-2.3,6.1-2.3,8.5,0l25.3,25.3-25.3,25.3c-1.2,1.2-2.7,1.8-4.2,1.8Z"/>
    </g>
  </g>
  <g id="White">
    <g>
      <path class="st4" d="M106.4,43.4c-1.3-.3-2.7-.5-4.1-.5s-3.8.3-5.4.8c-1.7.5-3.1,1.3-4.3,2.2-1.2,1-2.2,2.2-2.9,3.5-.7,1.4-1,2.9-1,4.6s.5,4,1.5,5.5c.9,1.4,2.2,2.6,3.7,3.6-.6.3-1.1.7-1.6,1.1-.6.5-1,1-1.4,1.5-.4.5-.7,1.1-.9,1.7-.2.6-.3,1.1-.3,1.6,0,1.3.3,2.4.8,3.2.5.7,1.1,1.2,1.8,1.7-1.5.6-2.7,1.4-3.6,2.4-1,1.1-1.5,2.5-1.5,4.1s.3,2.4,1,3.5c.6,1.1,1.6,2.1,2.9,2.9,1.3.8,2.9,1.5,4.8,2,1.9.5,4.2.8,6.7.8s5-.3,7-1c2.1-.7,3.8-1.6,5.2-2.7,1.4-1.1,2.5-2.4,3.3-3.8.8-1.4,1.1-2.9,1.1-4.5s-.3-3-1-4.1c-.6-1.1-1.5-1.9-2.6-2.5-1.1-.6-2.3-1.1-3.6-1.3-1.3-.3-2.7-.5-4.1-.6-1.4-.1-2.8-.2-4.1-.2-1.3,0-2.5-.1-3.5-.2-1-.1-1.8-.3-2.4-.7-.5-.3-.8-.7-.8-1.3s.5-1.3,1.4-1.9c.6.1,1.1.2,1.7.2.6,0,1.3,0,1.9,0,1.9,0,3.7-.3,5.3-.8,1.6-.5,3.1-1.3,4.3-2.2,1.2-1,2.2-2.2,2.9-3.5.7-1.4,1-2.9,1-4.6s-.2-2.5-.6-3.6l2.7-.5c1.6-.3,2-1.3,2-2v-3.3h-9.9c-1.1-.6-2.2-1-3.5-1.3ZM102.8,83.5c-1.5,0-2.7-.1-3.7-.3-1-.2-1.8-.5-2.4-.8-.6-.3-1.1-.8-1.3-1.2-.3-.5-.4-1-.4-1.5,0-.8.3-1.6.8-2.2.5-.6,1.2-1.2,2.1-1.7,1,.1,2.1.2,3.1.3,1.1,0,2.1,0,3.2.1,1,0,2,.1,2.9.2.9.1,1.7.3,2.3.5.6.2,1.2.5,1.5.9.4.4.5.8.5,1.4s-.2,1.2-.5,1.7c-.3.5-.8,1-1.5,1.4-.7.4-1.6.7-2.6.9-1.1.2-2.4.3-3.9.3ZM104.8,59.2c-.7.3-1.6.4-2.6.4s-1.8-.1-2.5-.4c-.7-.3-1.3-.6-1.8-1.1-.5-.5-.8-1-1.1-1.7-.2-.7-.4-1.4-.4-2.1,0-1.6.5-2.9,1.4-3.8.9-.9,2.4-1.4,4.3-1.4s3.4.5,4.3,1.4c.9.9,1.4,2.2,1.4,3.8s-.1,1.5-.4,2.2c-.2.6-.6,1.2-1.1,1.7-.5.5-1.1.8-1.8,1.1Z"/>
      <path class="st4" d="M152.5,61.2c.3-.5.4-1.3.4-2.6,0-2.5-.4-4.7-1.1-6.6-.7-1.9-1.8-3.6-3.1-4.9-1.3-1.3-2.9-2.4-4.7-3-1.8-.7-3.8-1-6-1s-4.9.5-6.9,1.3c-2,.9-3.8,2.1-5.2,3.6-1.4,1.5-2.5,3.3-3.3,5.4-.8,2.1-1.1,4.3-1.1,6.6s.4,5.7,1.3,7.9c.9,2.3,2.1,4.2,3.6,5.8,1.5,1.5,3.3,2.7,5.4,3.5,2,.8,4.3,1.2,6.7,1.2s2.4,0,3.7-.3c1.3-.2,2.5-.5,3.8-.9,1.2-.4,2.4-1,3.6-1.7,1.1-.7,2.2-1.6,3.1-2.7v-.2c.1,0-2.3-3.1-2.3-3.1-.4-.6-1-.9-1.7-.9s-1.1.2-1.7.5c-.5.3-1.2.6-1.9,1-.7.4-1.5.7-2.5,1-.9.3-2,.5-3.3.5s-2.5-.2-3.5-.6c-1-.4-2-1-2.7-1.8-.8-.8-1.4-1.8-1.9-3.1-.4-1.2-.7-2.6-.9-4.2h20.7c.8,0,1.4-.3,1.7-.8ZM130.2,56.6c.4-2.3,1.2-4,2.5-5.3,1.3-1.3,3.1-1.9,5.4-1.9s2.2.2,3.1.6c.9.4,1.6.9,2.2,1.6.6.7,1,1.5,1.3,2.4.3.8.4,1.7.4,2.7h-14.8Z"/>
      <path class="st4" d="M175.1,70.5c-.4-.3-.9-.3-1.5,0-.2.1-.4.2-.7.4-.2.1-.5.3-.9.4-.3.1-.7.2-1.2.2-.8,0-1.5-.3-1.9-.8-.5-.5-.7-1.3-.7-2.3v-18.1h9v-6.3h-9v-10.7h-4.5c-.5,0-1,.1-1.3.4-.4.3-.6.7-.7,1.2l-1.7,9.1-5.5.9v3.4c0,.6.2,1.1.5,1.5.4.3.8.5,1.3.5h3.2v18.7c0,3,.8,5.4,2.4,7.1,1.6,1.7,4,2.6,7,2.6s3.3-.3,4.9-.8c1.6-.5,3-1.3,4.2-2.3h.2c0-.1-2.6-4.3-2.6-4.3-.2-.3-.4-.5-.5-.6Z"/>
      <path class="st4" d="M208.4,46.7c-1-1.2-2.2-2.1-3.7-2.7-1.5-.6-3.1-1-5-1s-4.1.4-5.7,1.2c-1.4.7-2.8,1.6-4,2.7v-18.5h-8.7v49.5h8.7v-24.6c1.1-1,2.2-1.9,3.4-2.5,1.2-.6,2.5-.9,3.8-.9s3.2.5,4.1,1.6c.9,1.1,1.4,2.6,1.4,4.6v21.8h8.7v-21.8c0-1.9-.3-3.7-.8-5.3-.5-1.6-1.3-3-2.2-4.1Z"/>
      <path class="st4" d="M247.2,61.2c.3-.5.4-1.3.4-2.6,0-2.5-.4-4.7-1.1-6.6-.7-1.9-1.8-3.6-3.1-4.9-1.3-1.3-2.9-2.4-4.7-3-1.8-.7-3.8-1-6-1s-4.9.5-6.9,1.3c-2,.9-3.8,2.1-5.2,3.6-1.4,1.5-2.5,3.3-3.3,5.4-.8,2.1-1.1,4.3-1.1,6.6s.4,5.7,1.3,7.9c.9,2.3,2.1,4.2,3.6,5.8,1.5,1.5,3.3,2.7,5.4,3.5,2,.8,4.3,1.2,6.7,1.2s2.4,0,3.7-.3c1.3-.2,2.5-.5,3.8-.9,1.2-.4,2.4-1,3.6-1.7,1.1-.7,2.2-1.6,3.1-2.7v-.2c.1,0-2.3-3.1-2.3-3.1-.4-.6-1-.9-1.7-.9s-1.1.2-1.7.5c-.5.3-1.2.6-1.9,1-.7.4-1.5.7-2.5,1-.9.3-2,.5-3.3.5s-2.5-.2-3.5-.6c-1-.4-2-1-2.7-1.8-.8-.8-1.4-1.8-1.9-3.1-.4-1.2-.7-2.6-.9-4.2h20.7c.8,0,1.4-.3,1.7-.8ZM224.9,56.6c.4-2.3,1.2-4,2.5-5.3,1.3-1.3,3.1-1.9,5.4-1.9s2.2.2,3.1.6c.9.4,1.6.9,2.2,1.6.6.7,1,1.5,1.3,2.4.3.8.4,1.7.4,2.7h-14.8Z"/>
      <path class="st4" d="M275.5,46.7c-1.1-1.2-2.5-2.1-4-2.8-1.6-.7-3.4-1-5.4-1-5.5,0-10.3,1.8-14.2,5.4h-.1c0,.1,1.6,2.9,1.6,2.9.3.4.6.8,1,1.1.4.3,1,.5,1.6.5s1.3-.2,1.9-.5,1.1-.7,1.8-1c.6-.4,1.4-.7,2.3-1,.8-.3,1.9-.4,3.2-.4s3.1.5,4,1.5c.9,1,1.4,2.7,1.4,4.9v1.7c-2.5,0-4.7.3-6.7.6-2,.3-3.8.7-5.3,1.2-1.5.5-2.8,1.1-3.9,1.8-1,.7-1.9,1.4-2.6,2.2-.7.8-1.2,1.6-1.4,2.5-.3.9-.4,1.8-.4,2.6,0,1.5.3,2.9.7,4.1.5,1.2,1.2,2.2,2.1,3,.9.8,2,1.4,3.2,1.8,1.2.4,2.6.6,4,.6s2.4-.1,3.4-.3c1-.2,2-.5,2.9-.9.9-.4,1.8-.9,2.6-1.5.7-.5,1.5-1.1,2.2-1.8l.6,2.1c.3.8.6,1.3,1.1,1.5.5.3,1.1.4,1.9.4h3.9v-21.6c0-1.9-.3-3.7-.9-5.4-.6-1.6-1.4-3.1-2.5-4.2ZM270.4,63.4v5.3c-1.1,1.2-2.3,2.1-3.4,2.6-1.2.6-2.6.9-4.2.9s-2.4-.3-3.2-.9c-.8-.6-1.2-1.5-1.2-2.9s.2-1.3.6-1.9c.4-.6,1.1-1.1,2-1.5.9-.4,2.2-.8,3.8-1.1,1.5-.3,3.4-.5,5.6-.6Z"/>
      <path class="st4" d="M302.2,42.9c-2,0-3.8.6-5.3,1.8-1.3,1-2.5,2.4-3.5,4.2l-.4-3.1c-.1-.8-.4-1.4-.7-1.8-.4-.3-1-.5-1.9-.5h-5v34.4h8.7v-21.1c.4-.9.8-1.7,1.2-2.3.4-.7.9-1.3,1.4-1.7.5-.5,1.1-.8,1.8-1.1,1.1-.4,2.6-.5,4.2-.2.7.1,1.2.2,1.5.2s.7-.1,1-.3c.2-.2.4-.5.6-1l.5-6.2h-.1c-1-.8-2.3-1.2-3.9-1.2Z"/>
      <path class="st4" d="M329.7,45.9c-1-.8-2.1-1.5-3.2-2.1-1.4-.6-3-.9-5-.9s-4.3.5-6.1,1.4c-1.8.9-3.4,2.2-4.7,3.8-1.3,1.6-2.3,3.5-3,5.7-.7,2.2-1,4.6-1,7.1s.3,5.3.9,7.5c.6,2.2,1.5,4,2.6,5.5,1.1,1.5,2.5,2.6,4.1,3.4,1.6.8,3.3,1.2,5.2,1.2s4.5-.5,6.3-1.5c1.6-.9,3.1-2.1,4.4-3.5l.6,2.8c.3,1.1,1.1,1.7,2.3,1.7h5.2V28.3h-8.7v17.5ZM317.7,52.3c.7-.9,1.5-1.6,2.4-2,1-.4,2-.7,3.2-.7s2.4.2,3.4.7c1,.4,2,1.2,2.9,2.2v15c-1,1.2-2.1,2.2-3.2,2.9-1.1.7-2.6,1-4.2,1s-1.9-.2-2.8-.6c-.8-.4-1.5-1-2.1-1.8-.6-.8-1-1.9-1.3-3.3-.3-1.3-.5-3-.5-5s.2-3.6.6-5c.4-1.4.9-2.6,1.6-3.5Z"/>
      <path class="st4" d="M353,69.4c-.5-.5-1-.8-1.7-1.1-1.3-.6-2.9-.6-4.1,0-.6.3-1.2.6-1.7,1.1-.5.5-.8,1-1.1,1.7-.3.6-.4,1.3-.4,2s.1,1.4.4,2.1c.3.6.6,1.2,1.1,1.6.5.5,1,.8,1.7,1.1.6.3,1.3.4,2.1.4s1.4-.1,2.1-.4c.6-.3,1.2-.6,1.7-1.1.5-.5.9-1,1.1-1.6.3-.6.4-1.3.4-2.1s-.1-1.4-.4-2c-.3-.6-.7-1.2-1.1-1.7Z"/>
      <rect class="st4" x="360.5" y="43.5" width="8.7" height="34.4"/>
      <path class="st4" d="M368.7,30c-.5-.5-1.1-.9-1.7-1.2-1.3-.6-2.9-.6-4.2,0-.7.3-1.2.7-1.7,1.2-.5.5-.9,1.1-1.2,1.7s-.4,1.4-.4,2.1.1,1.4.4,2.1c.3.6.7,1.2,1.2,1.7.5.5,1.1.9,1.7,1.2.7.3,1.4.4,2.1.4s1.5-.1,2.1-.4c.7-.3,1.2-.7,1.7-1.2.5-.5.9-1.1,1.2-1.7.3-.6.5-1.3.5-2.1s-.2-1.5-.5-2.1c-.3-.7-.7-1.2-1.2-1.7Z"/>
      <path class="st4" d="M407.3,53.3c-.8-2.2-2-4.1-3.4-5.6-1.5-1.5-3.3-2.7-5.4-3.5-2.1-.8-4.4-1.2-6.9-1.2s-4.9.4-7,1.2c-2.1.8-3.9,2-5.4,3.5-1.5,1.5-2.6,3.4-3.5,5.6-.8,2.2-1.2,4.6-1.2,7.3s.4,5.2,1.2,7.3c.8,2.2,2,4.1,3.5,5.6,1.5,1.5,3.3,2.7,5.4,3.6,2.1.8,4.4,1.2,7,1.2s4.9-.4,6.9-1.2c2.1-.8,3.9-2,5.4-3.6,1.5-1.5,2.6-3.4,3.4-5.6.8-2.2,1.2-4.6,1.2-7.3s-.4-5.1-1.2-7.3ZM391.6,71.6c-2.8,0-4.8-.9-6.1-2.8-1.3-1.9-2-4.6-2-8.2s.7-6.3,2-8.2c1.3-1.8,3.4-2.8,6.1-2.8s4.8.9,6,2.8c1.3,1.9,2,4.6,2,8.2s-.7,6.3-2,8.2c-1.3,1.8-3.3,2.7-6.1,2.7Z"/>
    </g>
    <g>
      <path class="st3" d="M57.9,87.6c-1.5,0-3.1-.6-4.2-1.8l-25.3-25.3,25.3-25.3c2.3-2.3,6.1-2.3,8.5,0,2.3,2.3,2.3,6.1,0,8.5l-16.8,16.8,16.8,16.8c2.3,2.3,2.3,6.1,0,8.5-1.2,1.2-2.7,1.8-4.2,1.8Z"/>
      <path class="st3" d="M435.9,87.6c-1.5,0-3.1-.6-4.2-1.8-2.3-2.3-2.3-6.1,0-8.5l16.8-16.8-16.8-16.8c-2.3-2.3-2.3-6.1,0-8.5,2.3-2.3,6.1-2.3,8.5,0l25.3,25.3-25.3,25.3c-1.2,1.2-2.7,1.8-4.2,1.8Z"/>
    </g>
  </g>
</svg>